<svg viewBox="0 0 821 163" xmlns="http://www.w3.org/2000/svg">
  <defs>
    <linearGradient x2="100%" y2="20%" id="glasscord-gradient" gradientUnits="userSpaceOnUse">
      <stop offset="0%" stop-color="#dd2dfd"/>
      <stop offset="100%" stop-color="#9645fb"/>
    </linearGradient>
  </defs>
  <g fill='url("#glasscord-gradient")'>
    <path d="M108.048 38.1859C112.848 45.6151 120.302 51.5938 129.147 51.5938C131.707 51.5938 133.641 49.2544 132.975 46.7816C125.454 18.8262 100.789 0 69.2037 0C28.6546 0 0 31.2034 0 81.2525C0 131.302 28.4229 162.505 70.4395 162.505C108.131 162.505 135.009 137.403 135.009 98.2445V86.2525C135.009 83.4911 132.77 81.2525 130.009 81.2525H77.5967C76.0326 81.2525 74.7647 82.5204 74.7647 84.0845C74.7647 91.9048 81.1043 98.2445 88.9247 98.2445H116.472C115.932 126.667 97.2404 144.586 70.4395 144.586C41.0897 144.586 18.5367 122.342 18.5367 81.2525C18.5367 40.1628 41.0897 17.9188 69.2037 17.9188C86.6336 17.9188 99.7987 25.4161 108.048 38.1859Z"/>
    <path d="M161.822 5.20058C161.822 3.52276 160.461 2.16262 158.784 2.16262C150.394 2.16262 143.594 8.96332 143.594 17.3524V157.304C143.594 158.982 144.954 160.342 146.632 160.342C155.021 160.342 161.822 153.542 161.822 145.153V5.20058Z"/>
    <path d="M208.368 163.123C229.067 163.123 239.88 152.001 243.588 144.277H244.514V145.153C244.514 153.542 251.315 160.342 259.704 160.342C261.382 160.342 262.742 158.982 262.742 157.304V82.1794C262.742 44.4881 234.01 40.1628 218.872 40.1628C201.855 40.1628 182.609 45.7355 172.776 64.8193C171.914 66.4933 172.793 68.5031 174.566 69.1364C182.514 71.9748 191.139 67.75 197.921 62.7281C203.082 58.9067 210.147 56.228 219.49 56.228C236.25 56.228 244.514 65.1101 244.514 80.3257V80.9436C244.514 89.7485 235.555 88.9761 213.929 91.7567C191.917 94.6144 167.896 99.4803 167.896 126.667C167.896 149.838 185.815 163.123 208.368 163.123ZM211.148 146.749C196.628 146.749 186.124 140.261 186.124 127.594C186.124 113.692 198.791 109.367 213.002 107.513C220.726 106.586 241.425 104.423 244.514 100.716V117.399C244.514 132.228 232.775 146.749 211.148 146.749Z"/>
    <path d="M355.221 69.147C356.892 68.6738 357.835 66.8914 357.179 65.2828C350.989 50.116 338.338 40.1628 316.279 40.1628C291.254 40.1628 272.717 54.3743 272.717 74.4557C272.717 90.8298 282.449 101.797 304.23 106.895L324.002 111.529C335.974 114.31 341.612 120.025 341.612 128.212C341.612 138.407 330.799 146.749 313.807 146.749C305.2 146.749 298.446 144.611 293.651 140.351C287.474 134.864 279.831 129.214 271.815 131.218C270.249 131.61 269.263 133.178 269.699 134.732C274.855 153.075 291.017 162.814 314.116 162.814C341.689 162.814 360.458 147.753 360.458 127.285C360.458 110.757 350.108 100.33 328.945 95.155L311.335 90.8298C297.278 87.3542 290.945 82.6428 290.945 73.5289C290.945 63.3337 301.758 55.919 316.279 55.919C324.458 55.919 330.167 58.2459 334.215 61.6196C340.232 66.635 347.683 71.2802 355.221 69.147Z"/>
    <path d="M447.105 69.147C448.776 68.6738 449.719 66.8914 449.063 65.2828C442.873 50.116 430.222 40.1628 408.163 40.1628C383.138 40.1628 364.601 54.3743 364.601 74.4557C364.601 90.8298 374.333 101.797 396.114 106.895L415.886 111.529C427.858 114.31 433.496 120.025 433.496 128.212C433.496 138.407 422.683 146.749 405.691 146.749C397.084 146.749 390.33 144.611 385.535 140.351C379.358 134.864 371.715 129.214 363.699 131.218C362.133 131.61 361.147 133.178 361.583 134.732C366.739 153.075 382.901 162.814 406 162.814C433.573 162.814 452.342 147.753 452.342 127.285C452.342 110.757 441.992 100.33 420.829 95.155L403.219 90.8298C389.162 87.3542 382.829 82.6428 382.829 73.5289C382.829 63.3337 393.642 55.919 408.163 55.919C416.342 55.919 422.051 58.2459 426.099 61.6196C432.116 66.635 439.567 71.2802 447.105 69.147Z"/>
    <path d="M506.226 162.814C530.737 162.814 547.443 148.817 552.071 129.869C552.598 127.715 550.887 125.741 548.67 125.741C540.409 125.741 533.702 131.942 527.99 137.908C522.74 143.392 515.153 146.44 506.226 146.44C484.599 146.44 470.697 128.521 470.697 101.025C470.697 74.1468 484.908 56.5369 506.226 56.5369C515.744 56.5369 522.984 60.0072 527.884 65.0845C533.631 71.0403 540.434 77.2362 548.711 77.2362C550.912 77.2362 552.618 75.285 552.112 73.1424C547.4 53.1913 529.373 40.1628 505.917 40.1628C473.786 40.1628 452.469 65.4963 452.469 101.643C452.469 137.172 472.86 162.814 506.226 162.814Z"/>
    <path d="M605.969 162.814C638.099 162.814 659.725 138.407 659.725 101.643C659.725 64.5695 638.099 40.1628 605.969 40.1628C573.838 40.1628 552.212 64.5695 552.212 101.643C552.212 138.407 573.838 162.814 605.969 162.814ZM605.969 146.44C581.562 146.44 570.44 125.432 570.44 101.643C570.44 77.8541 581.562 56.5369 605.969 56.5369C630.375 56.5369 641.497 77.8541 641.497 101.643C641.497 125.432 630.375 146.44 605.969 146.44Z"/>
    <path d="M665.8 157.304C665.8 158.982 667.16 160.342 668.838 160.342C677.227 160.342 684.027 153.542 684.027 145.153V85.2688C684.027 69.2037 696.694 57.4638 713.995 57.4638C719.689 57.4638 725.117 53.1835 725.117 47.4892V42.5105C725.117 41.1868 724.096 40.0917 722.773 40.0338C720.461 39.9326 717.469 39.8539 715.54 39.8539C701.328 39.8539 688.97 47.8865 684.645 59.6264H683.409V56.3824C683.409 48.2777 676.839 41.7076 668.735 41.7076C667.114 41.7076 665.8 43.0216 665.8 44.6425V157.304Z"/>
    <path d="M766.16 162.814C789.022 162.814 796.746 148.603 800.762 142.115H802.925V145.668C802.925 153.772 809.495 160.342 817.6 160.342C819.221 160.342 820.535 159.028 820.535 157.407V5.20058C820.535 3.52276 819.174 2.16262 817.497 2.16262C809.108 2.16262 802.307 8.96332 802.307 17.3524V60.5532H800.762C796.746 54.3743 789.64 40.1628 766.469 40.1628C736.502 40.1628 715.802 63.9516 715.802 101.334C715.802 139.025 736.502 162.814 766.16 162.814ZM768.632 146.44C745.77 146.44 734.03 126.358 734.03 101.025C734.03 76.0005 745.461 56.5369 768.632 56.5369C790.876 56.5369 802.616 74.4557 802.616 101.025C802.616 127.903 790.567 146.44 768.632 146.44Z"/>
  </g>
</svg>
